<svg width="22" height="22" viewBox="0 0 22 22" fill="none" xmlns="http://www.w3.org/2000/svg">
<path fill-rule="evenodd" clip-rule="evenodd" d="M10.9997 1.14575C5.55737 1.14575 1.14551 5.55761 1.14551 10.9999C1.14551 16.4422 5.55737 20.8541 10.9997 20.8541C16.442 20.8541 20.8538 16.4422 20.8538 10.9999C20.8538 5.55761 16.442 1.14575 10.9997 1.14575ZM2.52051 10.9999C2.52051 8.90595 3.27954 6.98927 4.53748 5.51L7.47308 8.44559C6.95249 9.16309 6.64551 10.0457 6.64551 10.9999C6.64551 11.9542 6.95248 12.8367 7.47307 13.5542L4.53748 16.4898C3.27954 15.0106 2.52051 13.0939 2.52051 10.9999ZM8.44535 7.47332L5.50975 4.53773C6.98903 3.27979 8.90571 2.52075 10.9997 2.52075C13.0936 2.52075 15.0103 3.27979 16.4896 4.53773L13.554 7.47332C12.8365 6.95273 11.9539 6.64575 10.9997 6.64575C10.0454 6.64575 9.16285 6.95273 8.44535 7.47332ZM5.50975 17.4621C6.98902 18.72 8.90571 19.4791 10.9997 19.4791C13.0936 19.4791 15.0103 18.72 16.4896 17.4621L13.554 14.5265C12.8365 15.0471 11.9539 15.3541 10.9997 15.3541C10.0454 15.3541 9.16284 15.0471 8.44534 14.5265L5.50975 17.4621ZM14.5263 13.5542L17.4619 16.4898C18.7198 15.0106 19.4788 13.0939 19.4788 10.9999C19.4788 8.90595 18.7198 6.98927 17.4619 5.51L14.5263 8.44559C15.0469 9.16309 15.3538 10.0457 15.3538 10.9999C15.3538 11.9542 15.0469 12.8367 14.5263 13.5542ZM8.02051 10.9999C8.02051 9.35457 9.35433 8.02075 10.9997 8.02075C12.645 8.02075 13.9788 9.35457 13.9788 10.9999C13.9788 12.6453 12.645 13.9791 10.9997 13.9791C9.35433 13.9791 8.02051 12.6453 8.02051 10.9999Z" fill="#1C274C"/>
</svg>
