<svg width="374" height="209" viewBox="0 0 374 209" fill="none" xmlns="http://www.w3.org/2000/svg">
<g clip-path="url(#clip0_26133_19509)">
<rect x="0.333984" width="373" height="209" rx="8" fill="black"/>
<rect opacity="0.8" x="0.333984" width="373" height="209" rx="8" fill="#313335"/>
<g clip-path="url(#clip1_26133_19509)">
<mask id="mask0_26133_19509" style="mask-type:alpha" maskUnits="userSpaceOnUse" x="-217" y="-147" width="888" height="530">
<rect x="-216.471" y="-146.038" width="886.5" height="528.49" fill="url(#paint0_radial_26133_19509)"/>
</mask>
<g mask="url(#mask0_26133_19509)">
<g opacity="0.1">
<path d="M688.99 109.553L-235.071 109.553" stroke="white" stroke-width="0.5"/>
<path d="M688.99 72.5923L-235.071 72.5922" stroke="white" stroke-width="0.5"/>
<path d="M689 35.6318L-235.062 35.6318" stroke="white" stroke-width="0.5"/>
<path d="M688.99 146.515L-235.071 146.515" stroke="white" stroke-width="0.5"/>
<path d="M688.986 183.473L-235.075 183.473" stroke="white" stroke-width="0.5"/>
<path d="M356.336 590.067L356.336 -333.994" stroke="white" stroke-width="0.5"/>
<path d="M319.369 590.063L319.369 -333.999" stroke="white" stroke-width="0.5"/>
<path d="M282.398 590.062L282.399 -334" stroke="white" stroke-width="0.5"/>
<path d="M245.457 590.068L245.457 -333.993" stroke="white" stroke-width="0.5"/>
<path d="M208.479 590.065L208.479 -333.997" stroke="white" stroke-width="0.5"/>
<path d="M171.525 590.069L171.525 -333.993" stroke="white" stroke-width="0.5"/>
<path d="M134.549 590.064L134.549 -333.997" stroke="white" stroke-width="0.5"/>
<path d="M97.5918 590.067L97.5919 -333.995" stroke="white" stroke-width="0.5"/>
<path d="M60.6348 590.066L60.6349 -333.995" stroke="white" stroke-width="0.5"/>
<path d="M23.6699 590.072L23.67 -333.99" stroke="white" stroke-width="0.5"/>
</g>
</g>
</g>
<rect x="61" y="73" width="258" height="73" fill="#27292A"/>
<path d="M112.24 114.272C111.088 117.856 107.12 120.32 102.544 120.32C96.08 120.32 91.28 115.296 91.28 108.768C91.28 102.272 96.08 97.28 102.544 97.28C106.96 97.28 110.8 99.552 112.016 102.848L108.656 104.48C107.696 102.336 105.36 100.928 102.544 100.928C98.192 100.928 95.152 104.256 95.152 108.768C95.152 113.28 98.192 116.672 102.544 116.672C105.552 116.672 107.984 115.136 108.848 112.736L112.24 114.272ZM121.895 104.032C126.471 104.032 130.023 107.552 130.023 112.192C130.023 116.832 126.471 120.32 121.895 120.32C117.319 120.32 113.799 116.832 113.799 112.192C113.799 107.552 117.319 104.032 121.895 104.032ZM121.895 107.456C119.303 107.456 117.319 109.504 117.319 112.192C117.319 114.848 119.303 116.896 121.895 116.896C124.487 116.896 126.503 114.848 126.503 112.192C126.503 109.504 124.487 107.456 121.895 107.456ZM150.83 104.032C154.606 104.032 157.23 106.56 157.23 110.432V120H153.614V111.104C153.614 108.768 152.302 107.328 150.19 107.328C148.782 107.328 147.342 108.288 146.638 109.472L146.734 110.016V120H143.15V111.104C143.15 108.768 141.774 107.328 139.79 107.328C138.19 107.328 136.878 108.256 136.238 109.504V120H132.686V104.352H136.238V106.4C137.006 105.344 138.574 104.032 141.006 104.032C143.15 104.032 144.718 104.832 145.71 106.56C146.766 105.312 148.558 104.032 150.83 104.032ZM162.439 97.088C163.687 97.088 164.743 98.144 164.743 99.36C164.743 100.64 163.687 101.664 162.439 101.664C161.191 101.664 160.167 100.64 160.167 99.36C160.167 98.144 161.191 97.088 162.439 97.088ZM160.647 104.352H164.199V120H160.647V104.352ZM175.991 104.032C179.895 104.032 182.391 106.752 182.391 111.072V120H178.807V111.648C178.807 109.12 177.335 107.584 175.127 107.584C173.527 107.584 171.991 108.416 171.191 109.76V120H167.639V104.352H171.191V106.464C172.151 104.96 174.007 104.032 175.991 104.032ZM197.531 104.32H201.083V119.424C201.083 123.744 197.787 126.528 193.339 126.528C190.619 126.528 187.675 125.536 186.235 123.936L188.027 121.472C189.275 122.688 191.195 123.328 193.211 123.328C195.611 123.328 197.531 121.696 197.531 119.36V117.6C196.699 118.944 194.619 119.968 192.539 119.968C188.315 119.968 185.019 116.448 185.019 111.968C185.019 107.52 188.315 104.032 192.539 104.032C194.619 104.032 196.699 105.024 197.531 106.4V104.32ZM193.275 116.64C195.035 116.64 196.763 115.68 197.531 114.368V109.632C196.763 108.288 195.067 107.328 193.275 107.328C190.587 107.328 188.539 109.312 188.539 111.968C188.539 114.656 190.587 116.64 193.275 116.64ZM218.698 97.28C221.578 97.28 224.778 98.656 226.314 100.48L224.138 103.392C222.634 101.856 220.426 100.896 218.41 100.896C216.362 100.896 214.922 101.92 214.922 103.424C214.922 108.192 226.858 105.44 226.858 113.536C226.858 117.12 223.85 120.32 218.858 120.32C215.434 120.32 211.946 118.656 209.994 116.48L212.394 113.728C214.122 115.392 216.106 116.704 218.858 116.704C221.322 116.704 223.018 115.456 223.018 113.568C223.018 108.928 211.146 111.872 211.146 103.712C211.146 100.064 214.282 97.28 218.698 97.28ZM236.843 104.032C241.419 104.032 244.971 107.552 244.971 112.192C244.971 116.832 241.419 120.32 236.843 120.32C232.267 120.32 228.747 116.832 228.747 112.192C228.747 107.552 232.267 104.032 236.843 104.032ZM236.843 107.456C234.251 107.456 232.267 109.504 232.267 112.192C232.267 114.848 234.251 116.896 236.843 116.896C239.435 116.896 241.451 114.848 241.451 112.192C241.451 109.504 239.435 107.456 236.843 107.456ZM254.648 104.032C259.224 104.032 262.776 107.552 262.776 112.192C262.776 116.832 259.224 120.32 254.648 120.32C250.072 120.32 246.552 116.832 246.552 112.192C246.552 107.552 250.072 104.032 254.648 104.032ZM254.648 107.456C252.056 107.456 250.072 109.504 250.072 112.192C250.072 114.848 252.056 116.896 254.648 116.896C257.24 116.896 259.256 114.848 259.256 112.192C259.256 109.504 257.24 107.456 254.648 107.456ZM273.79 104.032C277.694 104.032 280.19 106.752 280.19 111.072V120H276.606V111.648C276.606 109.12 275.134 107.584 272.926 107.584C271.326 107.584 269.79 108.416 268.99 109.76V120H265.438V104.352H268.99V106.464C269.95 104.96 271.806 104.032 273.79 104.032Z" fill="#767676"/>
</g>
<defs>
<radialGradient id="paint0_radial_26133_19509" cx="0" cy="0" r="1" gradientUnits="userSpaceOnUse" gradientTransform="translate(184.159 104) rotate(90) scale(125.196 184.576)">
<stop offset="0.65" stop-color="#DC4B4B"/>
<stop offset="1" stop-color="#762828" stop-opacity="0"/>
</radialGradient>
<clipPath id="clip0_26133_19509">
<rect x="0.333984" width="373" height="209" rx="12" fill="white"/>
</clipPath>
<clipPath id="clip1_26133_19509">
<rect width="394" height="394" fill="white" transform="translate(-10 -93)"/>
</clipPath>
</defs>
</svg>
