<svg xmlns="http://www.w3.org/2000/svg" width="16" height="16" viewBox="0 0 16 16" fill="none">
  <g clip-path="url(#clip0_603_2114)">
    <rect x="3.19971" y="4.52893" width="4.48" height="7.69394" fill="#313335"/>
    <rect x="8.32031" y="4.52893" width="4.48" height="7.69394" fill="#313335"/>
    <rect x="3.84033" y="12.8639" width="0.64" height="1.92348" fill="#313335"/>
    <rect x="8.95996" y="12.8639" width="0.64" height="1.92348" fill="#313335"/>
    <rect x="5.12061" y="12.8639" width="0.64" height="2.56465" fill="#313335"/>
    <rect x="10.2397" y="12.8639" width="0.64" height="2.56465" fill="#313335"/>
    <rect x="6.39941" y="12.8639" width="0.64" height="1.92348" fill="#313335"/>
    <rect x="11.52" y="12.8639" width="0.64" height="1.92348" fill="#313335"/>
    <path fill-rule="evenodd" clip-rule="evenodd" d="M7.67971 3.88766C7.6797 2.22644 6.77877 0.776013 5.43971 0C4.10063 0.776019 3.19971 2.22646 3.19971 3.8877C3.19971 3.89346 3.19972 3.89923 3.19974 3.90499V3.88766H7.67971Z" fill="#313335"/>
    <path fill-rule="evenodd" clip-rule="evenodd" d="M12.7993 3.91219C12.7993 3.90403 12.7993 3.89587 12.7993 3.8877C12.7993 2.22646 11.8984 0.776019 10.5593 0C9.22027 0.776013 8.31935 2.22644 8.31934 3.88766H12.7993V3.91219Z" fill="#313335"/>
    <path d="M2.56 10.9782V6.45239L0 8.56445V11.5817L2.56 10.9782Z" fill="#313335"/>
    <path d="M13.44 10.9782V6.45239L16 8.56445V11.5817L13.44 10.9782Z" fill="#313335"/>
  </g>
  <defs>
    <clipPath id="clip0_603_2114">
      <rect width="15.9999" height="16" fill="white"/>
    </clipPath>
  </defs>
</svg>